<svg width="41" height="41" viewBox="0 0 41 41" fill="none" xmlns="http://www.w3.org/2000/svg">
<path fill-rule="evenodd" clip-rule="evenodd" d="M15.1588 31.6513C16.7399 32.3965 18.5054 32.813 20.3678 32.813C27.1439 32.813 32.637 27.2996 32.637 20.4986C32.637 13.6976 27.1439 8.18433 20.3678 8.18433C13.5917 8.18433 8.09853 13.6976 8.09853 20.4986C8.09853 22.7239 8.68659 24.8112 9.71525 26.6128L8.09853 32.813L15.1588 31.6513Z" stroke="#22AE0B" stroke-linecap="round" stroke-linejoin="round"/>
<path fill-rule="evenodd" clip-rule="evenodd" d="M19.7023 16.0873C20.1681 16.5548 20.1283 17.3526 19.6135 17.8694L18.6808 18.8055L22.0552 22.1923L22.9879 21.2562C23.5028 20.7394 24.2977 20.6995 24.7635 21.1671L26.4511 22.8609C26.9169 23.3284 26.8772 24.1262 26.3623 24.643L25.4292 25.5795C24.3997 26.6128 22.8096 26.6926 21.8781 25.7577L15.1284 18.9833C14.1968 18.0482 14.2764 16.4524 15.306 15.4191L16.2391 14.4826C16.7539 13.9658 17.5488 13.9259 18.0147 14.3935L19.7023 16.0873Z" stroke="#22AE0B" stroke-linecap="round" stroke-linejoin="round"/>
<path fill-rule="evenodd" clip-rule="evenodd" d="M0.940613 5C0.940613 2.79086 2.73147 1 4.94061 1H35.7979C38.0071 1 39.7979 2.79086 39.7979 5V36C39.7979 38.2091 38.0071 40 35.7979 40H4.94061C2.73147 40 0.940613 38.2091 0.940613 36V5Z" stroke="#22AE0B" stroke-linecap="round" stroke-linejoin="round"/>
</svg>
