<svg width="32" height="32" viewBox="0 0 32 32" fill="none" xmlns="http://www.w3.org/2000/svg">
<path d="M9.51612 3.79505C9.26293 3.52787 9.27415 3.1059 9.54118 2.85257C9.80821 2.59924 10.2299 2.61046 10.4831 2.87764L22.4839 15.5416C22.7276 15.7988 22.7276 16.2018 22.4839 16.459L10.4831 29.1224C10.2299 29.3895 9.80819 29.4007 9.54117 29.1474C9.27414 28.8941 9.26293 28.4721 9.51613 28.2049L21.0822 16.0003L9.51612 3.79505Z" fill="white"/>
<mask id="mask0_16_139" style="mask-type:alpha" maskUnits="userSpaceOnUse" x="9" y="2" width="14" height="28">
<path d="M9.51612 3.79505C9.26293 3.52787 9.27415 3.1059 9.54118 2.85257C9.80821 2.59924 10.2299 2.61046 10.4831 2.87764L22.4839 15.5416C22.7276 15.7988 22.7276 16.2018 22.4839 16.459L10.4831 29.1224C10.2299 29.3895 9.80819 29.4007 9.54117 29.1474C9.27414 28.8941 9.26293 28.4721 9.51613 28.2049L21.0822 16.0003L9.51612 3.79505Z" fill="white"/>
</mask>
<g mask="url(#mask0_16_139)">
</g>
</svg>
