<svg width="32" height="32" viewBox="0 0 32 32" fill="none" xmlns="http://www.w3.org/2000/svg">
<path d="M22.4839 3.79505C22.7371 3.52787 22.7258 3.1059 22.4588 2.85257C22.1918 2.59924 21.7701 2.61046 21.5169 2.87764L9.51612 15.5416C9.2724 15.7988 9.2724 16.2018 9.51613 16.459L21.5169 29.1224C21.7701 29.3895 22.1918 29.4007 22.4588 29.1474C22.7258 28.8941 22.7371 28.4721 22.4839 28.2049L10.9178 16.0003L22.4839 3.79505Z" fill="white"/>
<mask id="mask0_16_140" style="mask-type:alpha" maskUnits="userSpaceOnUse" x="9" y="2" width="14" height="28">
<path d="M22.4839 3.79505C22.7371 3.52787 22.7258 3.1059 22.4588 2.85257C22.1918 2.59924 21.7701 2.61046 21.5169 2.87764L9.51612 15.5416C9.2724 15.7988 9.2724 16.2018 9.51613 16.459L21.5169 29.1224C21.7701 29.3895 22.1918 29.4007 22.4588 29.1474C22.7258 28.8941 22.7371 28.4721 22.4839 28.2049L10.9178 16.0003L22.4839 3.79505Z" fill="white"/>
</mask>
<g mask="url(#mask0_16_140)">
</g>
</svg>
