<svg width="50" height="48" viewBox="0 0 50 48" fill="none" xmlns="http://www.w3.org/2000/svg">
<path fill-rule="evenodd" clip-rule="evenodd" d="M13.9527 9.85324C14.9602 8.71391 16.606 8.00585 18.2455 8.00585C19.8892 8.00585 21.5371 8.71592 22.5488 9.85725C23.0849 10.465 23.6752 11.472 23.4395 12.872L22.6677 19.2226C22.3152 21.433 20.5797 22.8612 18.2455 22.8612C15.9155 22.8612 14.1842 21.433 13.8379 19.2587L13.0536 12.8279C12.8242 11.4699 13.4166 10.461 13.9527 9.85324ZM11.7728 19.5254C12.2776 22.7208 14.8788 24.867 18.2455 24.867C21.6164 24.867 24.2217 22.7208 24.7328 19.4913L25.5067 13.1509C25.7841 11.502 25.2981 9.87129 24.1362 8.55746C22.7407 6.98086 20.4837 6 18.2455 6C16.0115 6 13.7566 6.97885 12.3632 8.55345C11.2013 9.86728 10.7153 11.5 10.9885 13.1067L11.7728 19.5254ZM31.8023 15.2155C32.5219 14.4011 33.7005 13.8956 34.8748 13.8956C36.0534 13.8956 37.234 14.4031 37.9558 15.2195C38.3292 15.6407 38.7422 16.3428 38.5753 17.3357L37.9892 22.4526C37.743 24.0071 36.5207 25.014 34.8748 25.014C33.2353 25.014 32.015 24.0071 31.7751 22.4927L31.1765 17.2835C31.0159 16.3408 31.4289 15.6387 31.8023 15.2155ZM29.708 22.7535C30.1106 25.3049 32.1882 27.0199 34.8748 27.0199C37.5678 27.0199 39.6475 25.3049 40.0584 22.7133L40.6425 17.6044C40.8657 16.2826 40.4756 14.9728 39.5453 13.9197C38.4376 12.668 36.6479 11.8898 34.8748 11.8898C33.106 11.8898 31.3183 12.666 30.2128 13.9177C29.2824 14.9688 28.8924 16.2806 29.1093 17.5543L29.708 22.7535ZM9.45766 41.1627C9.46079 41.1687 9.46392 41.1748 9.46913 41.1798C15.0615 40.1989 20.0595 39.7115 24.8738 39.7115C25.9179 39.7115 26.9794 39.7581 28.0379 39.8046L28.155 39.8098C30.0052 37.0939 30.2451 33.5375 30.2451 31.0502C30.2451 29.0544 28.4262 27.9091 25.2534 27.9091C24.2501 27.9091 22.8025 28.1157 21.1754 28.4888L20.5038 28.6533C19.7174 28.8518 18.9038 29.0564 18.2489 29.0564C17.5675 29.0564 16.9503 28.8933 16.4055 28.7493L16.3986 28.7475L16.0857 28.6673C15.4683 28.5108 14.8446 28.3825 14.2167 28.2842L13.6452 28.1919L13.6384 28.1908C12.8307 28.0587 11.9162 27.9091 11.2464 27.9091C8.25929 27.9091 6.25261 29.1708 6.25261 31.0462C6.25261 34.063 6.58428 38.3937 9.44619 41.1457C9.4514 41.1507 9.45453 41.1567 9.45766 41.1627ZM37.8285 31.1973C36.9202 31.3756 36.0638 31.5437 35.1533 31.5437C34.4796 31.5437 33.0549 31.2829 32.329 31.1285C32.3269 33.5957 32.0974 36.9996 30.5038 39.9382C33.7933 40.1749 37.2351 40.6262 40.9147 41.2921C42.8046 39.4287 43.7474 36.9214 43.7474 33.6057C43.7474 31.0262 41.4737 30.8236 40.777 30.8236C39.7331 30.8236 38.7756 31.0115 37.8513 31.1928L37.8317 31.1967L37.8285 31.1973ZM43.9016 41.8599C44.1687 41.9086 44.4362 41.9574 44.7174 42.0162C45.2806 42.1366 45.6373 42.6721 45.5121 43.2117C45.4057 43.6811 44.9739 44 44.4963 44C44.4212 44 44.3461 43.992 44.271 43.9759C36.9931 42.4334 30.8292 41.7173 24.8738 41.7173C19.0227 41.7173 12.9214 42.4234 5.67481 43.9378C5.10326 44.0582 4.55674 43.7132 4.43159 43.1716C4.3106 42.63 4.6673 42.0965 5.2305 41.9781C5.62419 41.8954 5.99929 41.8278 6.37399 41.7602C6.62666 41.7147 6.87915 41.6691 7.13705 41.6191C4.51711 38.3997 4.16667 34.1132 4.16667 31.0462C4.16667 28.0174 7.07864 25.9032 11.2464 25.9032C12.0922 25.9032 13.1025 26.0693 13.9924 26.2156L13.9956 26.2161L14.5484 26.3044C15.2451 26.4127 15.9355 26.5531 16.6156 26.7256L16.9514 26.8139L16.9646 26.8174C17.4388 26.9423 17.85 27.0506 18.2489 27.0506C18.6368 27.0506 19.3482 26.8721 19.976 26.7136L20.6894 26.5391C21.9493 26.2482 23.7641 25.9032 25.2534 25.9032C28.9685 25.9032 30.9585 27.2592 31.8096 28.9321L32.6314 29.1407C33.4178 29.3152 34.757 29.5378 35.1533 29.5378C35.8521 29.5378 36.6114 29.3894 37.4145 29.2309L37.4424 29.2255C38.4201 29.0342 39.5269 28.8177 40.777 28.8177C43.8016 28.8177 45.8333 30.7413 45.8333 33.6057C45.8333 36.9093 44.9218 39.6112 43.2217 41.7314C43.4532 41.7781 43.6772 41.8189 43.9016 41.8599Z" fill="#CC0000"/>
</svg>
