<svg width="46" height="43" viewBox="0 0 46 43" fill="none" xmlns="http://www.w3.org/2000/svg">
<g id="Icons / Banking / ic_bill_payment">
<path id="Icon" fill-rule="evenodd" clip-rule="evenodd" d="M5.73904 15.2459V11.6006C5.73904 8.15817 8.75026 5.36914 12.4586 5.36914H16.2718C16.8011 5.36914 17.2301 5.77022 17.2301 6.26497C17.2301 6.75973 16.8011 7.16081 16.2718 7.16081H12.4586C9.80487 7.16081 7.65571 9.15139 7.65571 11.6006V15.2459C7.65571 15.7407 7.22665 16.1418 6.69738 16.1418C6.1681 16.1418 5.73904 15.7407 5.73904 15.2459ZM40.261 15.2459V11.6006C40.261 8.15817 37.2498 5.36914 33.5414 5.36914H29.7282C29.1989 5.36914 28.7699 5.77022 28.7699 6.26497C28.7699 6.75973 29.1989 7.16081 29.7282 7.16081H33.5414C36.1951 7.16081 38.3443 9.15139 38.3443 11.6006V15.2459C38.3443 15.7407 38.7734 16.1418 39.3026 16.1418C39.8319 16.1418 40.261 15.7407 40.261 15.2459ZM13.4134 29.557V13.432C13.4134 12.9372 13.8425 12.5362 14.3718 12.5362C14.901 12.5362 15.3301 12.9372 15.3301 13.432V29.557C15.3301 30.0518 14.901 30.4528 14.3718 30.4528C13.8425 30.4528 13.4134 30.0518 13.4134 29.557ZM28.7468 29.557V13.432C28.7468 12.9372 28.3177 12.5362 27.7884 12.5362C27.2591 12.5362 26.8301 12.9372 26.8301 13.432V29.557C26.8301 30.0518 27.2591 30.4528 27.7884 30.4528C28.3177 30.4528 28.7468 30.0518 28.7468 29.557ZM17.2468 29.557V13.432C17.2468 12.9372 17.6758 12.5362 18.2051 12.5362C18.7344 12.5362 19.1634 12.9372 19.1634 13.432V29.557C19.1634 30.0518 18.7344 30.4528 18.2051 30.4528C17.6758 30.4528 17.2468 30.0518 17.2468 29.557ZM22.9968 13.432V29.557C22.9968 30.0518 23.4258 30.4528 23.9551 30.4528C24.4844 30.4528 24.9134 30.0518 24.9134 29.557V13.432C24.9134 12.9372 24.4844 12.5362 23.9551 12.5362C23.4258 12.5362 22.9968 12.9372 22.9968 13.432ZM30.6577 29.557V13.432C30.6577 12.9372 31.0868 12.5362 31.6161 12.5362C32.1453 12.5362 32.5744 12.9372 32.5744 13.432V29.557C32.5744 30.0518 32.1453 30.4528 31.6161 30.4528C31.0868 30.4528 30.6577 30.0518 30.6577 29.557ZM5.73904 27.754V31.3994C5.73904 34.8418 8.75026 37.6308 12.4586 37.6308H16.2718C16.8011 37.6308 17.2301 37.2297 17.2301 36.735C17.2301 36.2402 16.8011 35.8391 16.2718 35.8391H12.4586C9.80487 35.8391 7.65571 33.8486 7.65571 31.3994V27.754C7.65571 27.2593 7.22665 26.8582 6.69738 26.8582C6.1681 26.8582 5.73904 27.2593 5.73904 27.754ZM40.261 31.3994V27.754C40.261 27.2593 39.8319 26.8582 39.3026 26.8582C38.7734 26.8582 38.3443 27.2593 38.3443 27.754V31.3994C38.3443 33.8486 36.1951 35.8391 33.5414 35.8391H29.7282C29.1989 35.8391 28.7699 36.2402 28.7699 36.735C28.7699 37.2297 29.1989 37.6308 29.7282 37.6308H33.5414C37.2498 37.6308 40.261 34.8418 40.261 31.3994Z" fill="#CC0000"/>
</g>
</svg>
