<svg width="46" height="43" viewBox="0 0 46 43" fill="none" xmlns="http://www.w3.org/2000/svg">
<g id="Icons / Documents / ic_document_contract">
<path id="&#240;&#159;&#140;&#136; Color" fill-rule="evenodd" clip-rule="evenodd" d="M7.80357 37.6249V5.37492H32.4464V15.2291C32.4464 15.7238 32.9061 16.1249 33.4732 16.1249C34.0403 16.1249 34.5 15.7238 34.5 15.2291V4.47909C34.5 3.98433 34.0403 3.58325 33.4732 3.58325H6.77679C6.20971 3.58325 5.75 3.98433 5.75 4.47909V38.5208C5.75 39.0155 6.20971 39.4166 6.77679 39.4166H14.9911C15.5581 39.4166 16.0179 39.0155 16.0179 38.5208C16.0179 38.026 15.5581 37.6249 14.9911 37.6249H7.80357ZM35.1533 21.8218L32.2234 24.5607L32.2217 24.5623L21.1721 34.8913V37.5419H24.0077L35.0589 27.2132L35.0589 27.2132L35.0605 27.2117L37.9899 24.4733C38.3296 24.1549 38.3296 23.6409 37.9917 23.3243L36.3795 21.8209C36.0413 21.5039 35.4925 21.5039 35.1533 21.8218ZM36.4747 28.5409L36.4769 28.5388L39.4089 25.798C40.5302 24.747 40.5302 23.0488 39.4099 21.9987L37.7977 20.4954C36.6777 19.4456 34.8561 19.4456 33.7343 20.4971L30.8067 23.2337L30.8053 23.2351L19.4604 33.8402C19.2723 34.016 19.1667 34.2544 19.1667 34.503V38.4792C19.1667 38.9969 19.6156 39.4166 20.1694 39.4166H24.423C24.6889 39.4166 24.9439 39.3179 25.132 39.1421L36.4747 28.5409ZM25.875 12.5416H12.4583C11.9291 12.5416 11.5 12.1405 11.5 11.6458C11.5 11.151 11.9291 10.7499 12.4583 10.7499H25.875C26.4043 10.7499 26.8333 11.151 26.8333 11.6458C26.8333 12.1405 26.4043 12.5416 25.875 12.5416ZM12.4583 17.9166H25.875C26.4043 17.9166 26.8333 17.5155 26.8333 17.0208C26.8333 16.526 26.4043 16.1249 25.875 16.1249H12.4583C11.9291 16.1249 11.5 16.526 11.5 17.0208C11.5 17.5155 11.9291 17.9166 12.4583 17.9166ZM20.125 23.2916H12.4583C11.9291 23.2916 11.5 22.8905 11.5 22.3958C11.5 21.901 11.9291 21.4999 12.4583 21.4999H20.125C20.6543 21.4999 21.0833 21.901 21.0833 22.3958C21.0833 22.8905 20.6543 23.2916 20.125 23.2916Z" fill="#CC0000"/>
</g>
</svg>
