<svg width="46" height="44" viewBox="0 0 46 44" fill="none" xmlns="http://www.w3.org/2000/svg">
<g id="Icons / Documents / ic_levy_received">
<rect width="46" height="44" fill="white"/>
<path id="Icon" fill-rule="evenodd" clip-rule="evenodd" d="M25.8525 3.66702L25.829 3.66675H10.5416C10.0124 3.66675 9.58331 4.07715 9.58331 4.58341V39.4167C9.58331 39.923 10.0124 40.3334 10.5416 40.3334H35.4583C35.9878 40.3334 36.417 39.9227 36.4166 39.4162L36.4014 13.9421C36.4111 13.8902 36.4163 13.8369 36.4165 13.7824C36.4175 13.4788 36.2641 13.2092 36.027 13.0417L26.7046 4.12462C26.538 3.84956 26.2263 3.66515 25.8702 3.66679L25.8525 3.66702ZM24.921 5.50009L24.9165 4.58785C24.914 4.08724 25.3314 3.67844 25.8525 3.66702C26.0981 3.67279 26.3325 3.76864 26.5066 3.93523L26.7046 4.12462C26.7856 4.25833 26.8323 4.41345 26.8331 4.57905L26.8445 6.85117L25.432 5.50009H24.921ZM34.4852 14.6931L34.4994 38.5001H11.5V5.50009H24.921L24.9625 13.7545C24.965 14.2579 25.3914 14.6652 25.9177 14.6668L34.4852 14.6931ZM33.1219 12.8556L26.8745 12.8364L26.8445 6.85117L33.1219 12.8556ZM33.1219 12.8556L34.4849 14.1593L34.4852 14.6931L35.455 14.6961C35.9273 14.6976 36.3209 14.372 36.4014 13.9421L36.4013 13.7789C36.4012 13.536 36.3002 13.303 36.1206 13.1312L36.027 13.0417C35.8687 12.9298 35.6731 12.8634 35.4612 12.8628L33.1219 12.8556ZM16.9458 22.0016C16.9458 19.9931 18.7546 18.6321 21.0831 18.4135V16.9821C21.0831 16.4758 21.5122 16.0654 22.0415 16.0654C22.5707 16.0654 22.9998 16.4758 22.9998 16.9821V18.483C23.6742 18.589 24.3462 18.7749 25.0053 19.021C25.6394 19.2578 26.1285 19.4969 26.4211 19.6661C26.8741 19.9279 27.0193 20.4915 26.7455 20.9247C26.4718 21.358 25.8826 21.4969 25.4297 21.2351C25.2245 21.1164 24.8303 20.9237 24.3083 20.7288C23.4472 20.4072 22.5721 20.2159 21.7509 20.2159C20.0485 20.2159 18.8625 20.9954 18.8625 22.0016C18.8625 23.1193 19.7777 23.7609 22.5618 24.8152L22.8331 24.9179C26.2158 26.1982 27.4721 27.049 27.4721 29.0599C27.4721 31.2696 25.7239 32.5871 22.9998 32.8409V34.3106C22.9998 34.8168 22.5707 35.2272 22.0415 35.2272C21.5122 35.2272 21.0831 34.8168 21.0831 34.3106V32.8488C20.0114 32.7591 19.0801 32.5112 18.2881 32.1462C17.6527 31.8534 17.2222 31.5451 16.983 31.3083C16.6153 30.9442 16.6257 30.3639 17.0064 30.0121C17.387 29.6604 17.9937 29.6704 18.3614 30.0345C18.45 30.1222 18.6993 30.3007 19.1201 30.4946C19.8717 30.841 20.8224 31.0527 21.9943 31.0527C24.3571 31.0527 25.5555 30.3097 25.5555 29.0599C25.5555 28.1661 24.7314 27.608 22.1279 26.6226L21.8562 26.5198C18.3245 25.1823 16.9458 24.2158 16.9458 22.0016Z" fill="#CC0000"/>
</g>
</svg>
