<svg width="22" height="22" viewBox="0 0 22 22" fill="none" xmlns="http://www.w3.org/2000/svg">
<path d="M19.3099 14.6667C19.5683 14.6667 19.7778 14.8657 19.7778 15.1112C19.7778 15.3294 19.6123 15.5108 19.394 15.5484L19.3099 15.5556H2.46784C2.20946 15.5556 2 15.3566 2 15.1112C2 14.893 2.1655 14.7115 2.38374 14.6739L2.46784 14.6667H19.3099ZM19.3099 10.2223C19.5683 10.2223 19.7778 10.4213 19.7778 10.6667C19.7778 10.8849 19.6123 11.0664 19.394 11.104L19.3099 11.1112H2.46784C2.20946 11.1112 2 10.9122 2 10.6667C2 10.4485 2.1655 10.2671 2.38374 10.2294L2.46784 10.2223H19.3099ZM19.3099 5.77783C19.5683 5.77783 19.7778 5.97682 19.7778 6.22228C19.7778 6.44046 19.6123 6.62193 19.394 6.65956L19.3099 6.66672H2.46784C2.20946 6.66672 2 6.46774 2 6.22228C2 6.00409 2.1655 5.82262 2.38374 5.78499L2.46784 5.77783H19.3099Z" fill="#EC0000"/>
</svg>
