<svg width="42" height="46" viewBox="0 0 42 46" fill="none" xmlns="http://www.w3.org/2000/svg">
<g id="Icons / Banking / ic_mobile_recharge">
<path id="Icon" fill-rule="evenodd" clip-rule="evenodd" d="M26.25 35.4602V38.4061C26.25 39.4236 25.4955 40.2499 24.5665 40.2499H10.4335C9.5045 40.2499 8.75 39.4236 8.75 38.4061V7.59375C8.75 6.57627 9.5045 5.74992 10.4335 5.74992H24.5665C25.4955 5.74992 26.25 6.57627 26.25 7.59375L26.2553 10.553C26.2562 11.0823 26.6487 11.5105 27.132 11.5095C27.6152 11.5085 28.0062 11.0786 28.0052 10.5493L28 7.59189C28 5.51773 26.462 3.83325 24.5665 3.83325H10.4335C8.538 3.83325 7 5.51773 7 7.59375V38.4061C7 40.4821 8.538 42.1666 10.4335 42.1666H24.5665C26.462 42.1666 28 40.4821 28 38.4061V35.4602C28 34.9309 27.6082 34.5018 27.125 34.5018C26.6418 34.5018 26.25 34.9309 26.25 35.4602ZM16.625 38.3333H18.375C18.8582 38.3333 19.25 37.9042 19.25 37.3749C19.25 36.8456 18.8582 36.4166 18.375 36.4166H16.625C16.1418 36.4166 15.75 36.8456 15.75 37.3749C15.75 37.9042 16.1418 38.3333 16.625 38.3333ZM20.125 9.58325H14.875C14.3918 9.58325 14 9.15419 14 8.62492C14 8.09565 14.3918 7.66659 14.875 7.66659H20.125C20.6082 7.66659 21 8.09565 21 8.62492C21 9.15419 20.6082 9.58325 20.125 9.58325ZM23.9874 23.0421H34.125C34.6082 23.0421 35 22.613 35 22.0838C35 21.5545 34.6082 21.1254 34.125 21.1254H23.9874L27.7437 17.0114C28.0854 16.6372 28.0854 16.0304 27.7437 15.6561C27.402 15.2819 26.848 15.2819 26.5063 15.6561L21.2574 21.4049C21.2538 21.4088 21.2503 21.4127 21.2468 21.4167C21.1676 21.5061 21.1075 21.6082 21.0664 21.7169C21.0291 21.8155 21.0063 21.9225 21.0011 22.0345C21.0004 22.0508 21 22.0672 21 22.0838C21 22.2137 21.0236 22.3376 21.0664 22.4506C21.1091 22.5636 21.1724 22.6695 21.2563 22.7614L26.5063 28.5114C26.848 28.8857 27.402 28.8857 27.7437 28.5114C28.0854 28.1372 28.0854 27.5304 27.7437 27.1561L23.9874 23.0421Z" fill="#CC0000"/>
</g>
</svg>
