<svg width="15" height="15" viewBox="0 0 15 15" fill="none"
  xmlns="http://www.w3.org/2000/svg">
  <path d="M5.45261 0.146973C8.38286 0.146973 10.7585 2.5226 10.7585 5.45286C10.7585 6.33426 10.5436 7.16548 10.1632 7.89696L14.3835 12.1177C15.0095 12.7437 15.0095 13.7581 14.3833 14.3842C13.7887 14.9779 12.8436 15.0076 12.2146 14.4731L12.118 14.384L7.89598 10.1639C7.16468 10.5439 6.33372 10.7587 5.45261 10.7587C2.52236 10.7587 0.146729 8.38311 0.146729 5.45286C0.146729 2.5226 2.52236 0.146973 5.45261 0.146973ZM8.54132 9.76748L12.6379 13.8641C12.976 14.2021 13.525 14.2021 13.8636 13.8641C14.1782 13.5495 14.2006 13.0538 13.931 12.7133L13.8636 12.6377L9.76724 8.54156C9.42838 9.01407 9.01382 9.42862 8.54132 9.76748ZM5.45261 0.882267C2.92845 0.882267 0.882023 2.9287 0.882023 5.45286C0.882023 7.97702 2.92845 10.0234 5.45261 10.0234C7.97677 10.0234 10.0232 7.97702 10.0232 5.45286C10.0232 2.9287 7.97677 0.882267 5.45261 0.882267Z" fill="#EC0000"/>
</svg>
