<svg width="40" height="40" viewBox="0 0 40 40" fill="none" xmlns="http://www.w3.org/2000/svg">
<g id="Icons / System / ic_urgent">
<rect width="40" height="40" rx="4" fill="white"/>
<path id="Icon" fill-rule="evenodd" clip-rule="evenodd" d="M16.4954 5.37739L3.85875 30.6807C2.3334 33.3186 4.27116 36.673 7.36928 36.673H32.6426C35.7407 36.673 37.6769 33.3186 36.1276 30.6363L23.5148 5.37739C21.9418 2.65087 18.0685 2.65087 16.5193 5.33292L16.4954 5.37739ZM22.0477 6.16651L34.6604 31.4254C35.5919 33.0411 34.4575 35.0064 32.6426 35.0064H7.36928C5.55399 35.0064 4.41854 33.0408 5.3259 31.4698L17.9744 6.14627C18.8897 4.59526 21.144 4.602 22.0477 6.16651ZM19.1721 16.6637V24.997C19.1721 25.4573 19.5452 25.8304 20.0055 25.8304C20.4657 25.8304 20.8388 25.4573 20.8388 24.997V16.6637C20.8388 16.2035 20.4657 15.8304 20.0055 15.8304C19.5452 15.8304 19.1721 16.2035 19.1721 16.6637ZM20.8388 30.8304V29.1637C20.8388 28.7035 20.4657 28.3304 20.0055 28.3304C19.5452 28.3304 19.1721 28.7035 19.1721 29.1637V30.8304C19.1721 31.2906 19.5452 31.6637 20.0055 31.6637C20.4657 31.6637 20.8388 31.2906 20.8388 30.8304Z" fill="black"/>
</g>
</svg>
