<svg width="128" height="24" viewBox="0 0 128 24" fill="none" xmlns="http://www.w3.org/2000/svg">
<path fill-rule="evenodd" clip-rule="evenodd" d="M92.9851 9.60726C92.1842 9.60726 91.4096 9.81766 90.6875 10.1594C90.228 9.77821 89.5453 9.60726 88.6264 9.60726C87.7861 9.60726 86.9196 9.73876 86.0401 9.97546V16.5479H86.959V10.6064C87.4709 10.4882 88.0355 10.4224 88.5343 10.4224C89.9392 10.4224 90.4644 10.9481 90.4644 12.2231V16.5479H91.3833V12.1049C91.3833 11.5791 91.3045 11.1452 91.1602 10.8036C91.7115 10.5669 92.3024 10.4224 92.9063 10.4224C94.2585 10.4224 94.8362 11.0533 94.8362 12.2496V16.5479H95.7551V12.1049C95.7551 10.5143 94.9675 9.60726 92.9851 9.60726ZM76.6794 7.47781C76.325 7.47781 76.0624 7.74081 76.0624 8.09558C76.0624 8.45063 76.325 8.70034 76.6794 8.70034C77.0339 8.70034 77.2835 8.45063 77.2835 8.09558C77.2835 7.74081 77.0339 7.47781 76.6794 7.47781ZM101.978 12.6439H97.987C98.0919 11.2767 98.7352 10.4091 100.048 10.4091C101.348 10.4091 101.978 11.2899 101.978 12.5912V12.6439ZM100.088 9.60726C97.9345 9.60726 97.0548 11.1584 97.0548 13.117C97.0548 15.3778 98.2101 16.7057 100.403 16.7057C101.151 16.7057 101.834 16.5872 102.49 16.206C102.556 15.917 102.608 15.5621 102.634 15.3254C101.926 15.7329 101.138 15.8906 100.429 15.8906C98.9322 15.8906 98.1051 15.0494 97.987 13.4721H102.844C102.884 13.2091 102.897 12.9329 102.897 12.6569C102.897 10.9613 102.057 9.60726 100.088 9.60726ZM83.3354 15.2728C82.9022 15.6935 82.3509 15.9433 81.6681 15.9433C80.2371 15.9433 79.5019 14.9047 79.5019 13.2091C79.5019 11.4476 80.3028 10.4224 82.062 10.4224C82.5346 10.4224 82.9415 10.4749 83.3354 10.5801V15.2728ZM78.5697 13.2091C78.5697 15.4567 79.725 16.7057 81.5894 16.7057C82.3245 16.7057 82.9285 16.4296 83.3749 16.0352L83.401 16.5479H84.2544V9.97546C83.5586 9.71246 82.8758 9.60726 82.062 9.60726C79.7119 9.60726 78.5697 10.8955 78.5697 13.2091ZM106.809 9.60726C106.074 9.60726 105.221 9.73876 104.341 9.97546V16.5479H105.26V10.6064C105.759 10.4882 106.31 10.4224 106.783 10.4224C108.398 10.4224 108.857 11.0533 108.857 12.2757V16.5479H109.776V12.1049C109.776 10.5143 109.028 9.60726 106.809 9.60726ZM125.661 12.8147L125.045 12.6043C124.231 12.3285 123.718 12.1049 123.718 11.3688C123.718 10.7247 124.231 10.396 125.242 10.396C125.885 10.396 126.555 10.5012 127.159 10.7247C127.237 10.4617 127.276 10.1726 127.29 9.94902C126.686 9.71246 125.977 9.60726 125.216 9.60726C123.731 9.60726 122.839 10.2252 122.839 11.395C122.839 12.4467 123.483 13.0381 124.651 13.3932L125.254 13.5771C125.885 13.7743 126.606 14.0503 126.606 14.839C126.606 15.5883 125.99 15.9037 124.979 15.9037C124.309 15.9037 123.456 15.7461 122.839 15.3911C122.773 15.5751 122.72 15.8248 122.708 16.193C123.324 16.5479 124.087 16.7057 125.005 16.7057C126.581 16.7057 127.5 16.0091 127.5 14.8127C127.5 13.6691 126.699 13.1696 125.661 12.8147ZM112.323 14.4972V10.6325H114.608C114.66 10.3828 114.686 10.12 114.699 9.80451H112.323V7.37275C112.047 7.37275 111.68 7.42521 111.404 7.51726V14.6024C111.404 16.0747 112.179 16.7057 113.439 16.7057C113.846 16.7057 114.227 16.64 114.621 16.4953C114.673 16.2456 114.712 15.9563 114.739 15.7066C114.384 15.838 113.964 15.917 113.597 15.917C112.783 15.917 112.323 15.4963 112.323 14.4972ZM118.454 15.8776C116.958 15.8776 116.17 14.8916 116.17 13.1302C116.17 11.5133 116.918 10.4354 118.454 10.4354C119.938 10.4354 120.725 11.4345 120.725 13.1563C120.725 14.8127 119.977 15.8776 118.454 15.8776ZM118.481 9.60726C116.446 9.60726 115.238 10.9744 115.238 13.1959C115.238 15.2202 116.301 16.7057 118.402 16.7057C120.476 16.7057 121.658 15.3385 121.658 13.0909C121.658 11.0926 120.607 9.60726 118.481 9.60726ZM76.2199 16.5479H77.139V9.76506H76.2199V16.5479ZM46.1953 16.5479H47.1143V9.76506H46.1953V16.5479ZM39.7753 16.5479H40.6944V12.4072H44.4753C44.5149 12.1574 44.5541 11.763 44.5674 11.5265H40.6944V8.33228H44.8299C44.8825 8.08243 44.9217 7.68821 44.9349 7.45151H39.7753V16.5479ZM46.6548 7.47781C46.3002 7.47781 46.0378 7.74081 46.0378 8.09558C46.0378 8.45063 46.3002 8.70034 46.6548 8.70034C47.0091 8.70034 47.2587 8.45063 47.2587 8.09558C47.2587 7.74081 47.0091 7.47781 46.6548 7.47781ZM15.8657 9.35441C15.8336 8.61843 15.628 7.88832 15.2476 7.22853L11.8908 1.40734C11.6348 0.963385 11.4581 0.487696 11.36 0L11.2197 0.243276C10.3888 1.68392 10.3888 3.45904 11.2195 4.89997L13.9049 9.5568C14.7356 10.9976 14.7356 12.7729 13.9049 14.2136L13.7645 14.4569C13.6664 13.9691 13.4895 13.4935 13.2337 13.0494L9.20564 6.06403C8.94968 5.62022 8.7728 5.14453 8.67458 4.65684L8.5344 4.89997C7.70626 6.33604 7.70369 8.10401 8.52612 9.54208L8.52597 9.54223L11.2197 14.2136C12.0504 15.6544 12.0504 17.4297 11.2197 18.8705L11.0793 19.1138C10.981 18.6259 10.8042 18.1502 10.5483 17.7064L7.19162 11.8854C6.7415 11.1045 6.53579 10.2257 6.57348 9.35498C2.98013 10.2949 0.5 12.2909 0.5 14.6017C0.5 17.8166 5.29922 20.4228 11.2197 20.4228C17.14 20.4228 21.9393 17.8166 21.9393 14.6017C21.9393 12.2907 19.4592 10.2944 15.8657 9.35441ZM30.4268 24H31.3458V0H30.4268V24ZM51.3678 9.60726C50.6325 9.60726 49.7792 9.73876 48.8995 9.97546V16.5479H49.8186V10.6064C50.3174 10.4882 50.8687 10.4224 51.3415 10.4224C52.9563 10.4224 53.4158 11.0533 53.4158 12.2757V16.5479H54.3349V12.1049C54.3349 10.5143 53.5864 9.60726 51.3678 9.60726ZM60.4526 15.2728C60.0195 15.6935 59.4682 15.9433 58.7854 15.9433C57.3543 15.9433 56.6191 14.9047 56.6191 13.2091C56.6191 11.4476 57.42 10.4224 59.1792 10.4224C59.6519 10.4224 60.0587 10.4749 60.4526 10.5801V15.2728ZM55.6869 13.2091C55.6869 15.4567 56.8423 16.7057 58.7067 16.7057C59.4417 16.7057 60.0458 16.4296 60.4922 16.0352L60.5183 16.5479H61.3717V9.97546C60.6759 9.71246 59.9931 9.60726 59.1792 9.60726C56.8291 9.60726 55.6869 10.8955 55.6869 13.2091ZM65.6254 9.60726C64.8901 9.60726 64.0368 9.73876 63.1572 9.97546V16.5479H64.0762V10.6064C64.575 10.4882 65.1264 10.4224 65.5992 10.4224C67.2139 10.4224 67.6734 11.0533 67.6734 12.2757V16.5479H68.5925V12.1049C68.5925 10.5143 67.8442 9.60726 65.6254 9.60726ZM73.358 10.4224C73.7912 10.4224 74.3162 10.5012 74.8153 10.7247C74.8678 10.4617 74.9071 10.1989 74.9202 9.92272C74.4082 9.69931 73.8962 9.60726 73.358 9.60726C71.021 9.60726 69.8919 11.027 69.8919 13.1828C69.8919 15.4436 71.1654 16.7057 73.0954 16.7057C73.7256 16.7057 74.3162 16.5742 74.7889 16.2456C74.8414 15.9563 74.881 15.6278 74.9071 15.3648C74.395 15.7066 73.778 15.8906 73.174 15.8906C71.822 15.8906 70.8242 15.0362 70.8242 13.1563C70.8242 11.4345 71.6775 10.4224 73.358 10.4224V10.4224Z" fill="#EC0000"/>
</svg>
