<?xml version="1.0" encoding="UTF-8"?>
<svg width="252px" height="20px" viewBox="0 0 252 20" version="1.1" xmlns="http://www.w3.org/2000/svg" xmlns:xlink="http://www.w3.org/1999/xlink">
    <title>C97C7695-A2CC-467D-800F-42AC5BD71727</title>
    <g id="LP---Financeira-telas-02" stroke="none" stroke-width="1" fill="none" fill-rule="evenodd">
        <g id="01-LP-home---ok" transform="translate(-124.000000, -32.000000)" fill="#EC0000">
            <g id="Atoms-Cross/Logos/Segments/Preferential/Santander-Financiamentos-Preferential" transform="translate(124.000000, 32.000000)">
                <path d="M169.726757,10.1303916 C170.379571,10.1303916 171.169671,10.2488913 171.920547,10.5845237 C172.000398,10.1897114 172.059235,9.79489906 172.078847,9.38022021 C171.308359,9.04444786 170.537871,8.90636149 169.726757,8.90636149 C166.207728,8.90636149 164.508452,11.0385159 164.508452,14.2763406 C164.508452,17.6719784 166.424866,19.5672734 169.331707,19.5672734 C170.280108,19.5672734 171.169671,19.3698672 171.881322,18.8764218 C171.961173,18.4418764 172.02001,17.948431 172.059235,17.5536186 C171.288747,18.0669306 170.359958,18.3432433 169.449382,18.3432433 C167.413892,18.3432433 165.91074,17.0600333 165.91074,14.2368874 C165.91074,11.650461 167.196755,10.1303916 169.726757,10.1303916 Z M158.083982,8.90636149 C156.97588,8.90636149 155.691266,9.10376765 154.367428,9.45912671 L154.367428,19.330414 L155.750103,19.330414 L155.750103,10.4068442 C156.50238,10.2290247 157.331705,10.1303916 158.043356,10.1303916 C160.475297,10.1303916 161.167335,11.078109 161.167335,12.9140843 L161.167335,19.330414 L162.551412,19.330414 L162.551412,12.6574982 C162.551412,10.2686179 161.423697,8.90636149 158.083982,8.90636149 Z M129.518486,5.70812989 C128.984748,5.70812989 128.589698,6.10294221 128.589698,6.63612071 C128.589698,7.1690194 128.984748,7.5441051 129.518486,7.5441051 C130.052225,7.5441051 130.427662,7.1690194 130.427662,6.63612071 C130.427662,6.10294221 130.052225,5.70812989 129.518486,5.70812989 Z M174.035887,19.330414 L175.419964,19.330414 L175.419964,9.1432209 L174.035887,9.1432209 L174.035887,19.330414 Z M150.295048,17.4152525 C149.642234,18.0470641 148.812909,18.4222897 147.784658,18.4222897 C145.630093,18.4222897 144.521991,16.8624872 144.521991,14.3157939 C144.521991,11.6703275 145.728155,10.1303916 148.377233,10.1303916 C149.088884,10.1303916 149.702472,10.209438 150.295048,10.367251 L150.295048,17.4152525 Z M143.119702,14.3157939 C143.119702,17.6918449 144.858204,19.5672734 147.665582,19.5672734 C148.772283,19.5672734 149.68286,19.1525945 150.353885,18.560516 L150.394511,19.330414 L151.679125,19.330414 L151.679125,9.45912671 C150.631261,9.06431439 149.603009,8.90636149 148.377233,8.90636149 C144.838591,8.90636149 143.119702,10.8411097 143.119702,14.3157939 Z M136.615382,8.90636149 C135.508681,8.90636149 134.224067,9.10376765 132.898828,9.45912671 L132.898828,19.330414 L134.282905,19.330414 L134.282905,10.4068442 C135.03378,10.2290247 135.864506,10.1303916 136.576157,10.1303916 C139.008098,10.1303916 139.700136,11.078109 139.700136,12.9140843 L139.700136,19.330414 L141.082812,19.330414 L141.082812,12.6574982 C141.082812,10.2686179 139.956499,8.90636149 136.615382,8.90636149 Z M248.481846,13.7235754 L247.553058,13.4076696 C246.327282,12.9929908 245.555393,12.6574982 245.555393,11.5518279 C245.555393,10.5845237 246.327282,10.0909383 247.848645,10.0909383 C248.818059,10.0909383 249.826698,10.2488913 250.735874,10.5845237 C250.853549,10.1897114 250.913787,9.755166 250.933399,9.41967346 C250.024224,9.06431439 248.956747,8.90636149 247.80942,8.90636149 C245.576406,8.90636149 244.231554,9.8342124 244.231554,11.591421 C244.231554,13.1708102 245.199567,14.0592079 246.959082,14.5922465 L247.868258,14.8685591 C248.818059,15.1648782 249.905148,15.5792773 249.905148,16.7638541 C249.905148,17.8891112 248.97636,18.3629699 247.453595,18.3629699 C246.444956,18.3629699 245.160342,18.1261105 244.231554,17.5930719 C244.132091,17.8695245 244.053641,18.2446102 244.034029,18.7973754 C244.962817,19.330414 246.110144,19.5672734 247.49282,19.5672734 C249.865923,19.5672734 251.25,18.5209228 251.25,16.7244009 C251.25,15.0069253 250.043836,14.2564741 248.481846,13.7235754 Z M237.629172,18.3236566 C235.375144,18.3236566 234.189993,16.8429005 234.189993,14.1972942 C234.189993,11.7691005 235.316306,10.1501182 237.629172,10.1501182 C239.863587,10.1501182 241.048738,11.650461 241.048738,14.2368874 C241.048738,16.7244009 239.922424,18.3236566 237.629172,18.3236566 Z M237.668396,8.90636149 C234.604656,8.90636149 232.786304,10.9596094 232.786304,14.2962072 C232.786304,17.336346 234.387518,19.5672734 237.550722,19.5672734 C240.6733,19.5672734 242.452427,17.5140255 242.452427,14.1382543 C242.452427,11.1372889 240.870825,8.90636149 237.668396,8.90636149 Z M174.727925,5.70812989 C174.194187,5.70812989 173.799137,6.10294221 173.799137,6.63612071 C173.799137,7.1690194 174.194187,7.5441051 174.727925,7.5441051 C175.261663,7.5441051 175.637101,7.1690194 175.637101,6.63612071 C175.637101,6.10294221 175.261663,5.70812989 174.727925,5.70812989 Z M228.397323,16.2505421 L228.397323,10.4462974 L231.836502,10.4462974 C231.916353,10.0710718 231.955578,9.6762595 231.97519,9.20240077 L228.397323,9.20240077 L228.397323,5.55017698 C227.982661,5.55017698 227.42931,5.62908348 227.013247,5.76744967 L227.013247,16.408495 C227.013247,18.6196958 228.180186,19.5672734 230.078388,19.5672734 C230.690576,19.5672734 231.263539,19.4685004 231.857515,19.2513676 C231.935965,18.8764218 231.994802,18.4418764 232.035428,18.0669306 C231.50169,18.2643368 230.868489,18.3826965 230.315138,18.3826965 C229.089362,18.3826965 228.397323,17.7510248 228.397323,16.2505421 Z M128.826448,19.330414 L130.210525,19.330414 L130.210525,9.1432209 L128.826448,9.1432209 L128.826448,19.330414 Z M184.749874,17.4152525 C184.098461,18.0470641 183.267735,18.4222897 182.239484,18.4222897 C180.084919,18.4222897 178.978218,16.8624872 178.978218,14.3157939 C178.978218,11.6703275 180.184382,10.1303916 182.832059,10.1303916 C183.54371,10.1303916 184.157299,10.209438 184.749874,10.367251 L184.749874,17.4152525 Z M177.574529,14.3157939 C177.574529,17.6918449 179.314431,19.5672734 182.120408,19.5672734 C183.22851,19.5672734 184.137686,19.1525945 184.810112,18.560516 L184.849337,19.330414 L186.133951,19.330414 L186.133951,9.45912671 C185.086087,9.06431439 184.057836,8.90636149 182.832059,8.90636149 C179.294818,8.90636149 177.574529,10.8411097 177.574529,14.3157939 Z M220.095665,8.90636149 C218.987563,8.90636149 217.702949,9.10376765 216.37911,9.45912671 L216.37911,19.330414 L217.761786,19.330414 L217.761786,10.4068442 C218.514063,10.2290247 219.343388,10.1303916 220.055039,10.1303916 C222.486979,10.1303916 223.179018,11.078109 223.179018,12.9140843 L223.179018,19.330414 L224.563095,19.330414 L224.563095,12.6574982 C224.563095,10.2686179 223.43538,8.90636149 220.095665,8.90636149 Z M212.820856,13.4668495 L206.811049,13.4668495 C206.969349,11.4136016 207.937363,10.1108049 209.915416,10.1108049 C211.872455,10.1108049 212.820856,11.4334681 212.820856,13.3878031 L212.820856,13.4668495 Z M209.974253,8.90636149 C206.732599,8.90636149 205.40736,11.235922 205.40736,14.1775676 C205.40736,17.5732054 207.147262,19.5672734 210.449154,19.5672734 C211.575467,19.5672734 212.603719,19.3895939 213.591344,18.817102 C213.690807,18.3826965 213.769257,17.8497978 213.808482,17.4942989 C212.741006,18.1063839 211.555855,18.3432433 210.488379,18.3432433 C208.234351,18.3432433 206.988962,17.0797599 206.811049,14.7106062 L214.125082,14.7106062 C214.185321,14.3157939 214.204933,13.9012549 214.204933,13.4865761 C214.204933,10.9397429 212.939932,8.90636149 209.974253,8.90636149 Z M199.279878,8.90636149 C198.073714,8.90636149 196.908176,9.2222673 195.819686,9.73557928 C195.127648,9.16308743 194.100798,8.90636149 192.716721,8.90636149 C191.451719,8.90636149 190.146092,9.10376765 188.822254,9.45912671 L188.822254,19.330414 L190.206331,19.330414 L190.206331,10.4068442 C190.976819,10.2290247 191.827157,10.1303916 192.578033,10.1303916 C194.693373,10.1303916 195.483473,10.9201561 195.483473,12.8350378 L195.483473,19.330414 L196.86755,19.330414 L196.86755,12.6574982 C196.86755,11.8677337 196.749876,11.2163353 196.531337,10.7028834 C197.362063,10.3476643 198.251627,10.1303916 199.160803,10.1303916 C201.197693,10.1303916 202.067644,11.078109 202.067644,12.874631 L202.067644,19.330414 L203.45032,19.330414 L203.45032,12.6574982 C203.45032,10.2686179 202.265169,8.90636149 199.279878,8.90636149 Z M63.4949423,11.095877 C63.5937049,10.5233851 63.6531025,9.91130014 63.6924674,9.23989535 L60.2527285,9.23989535 L60.2527285,5.50848525 C59.5805827,5.50848525 58.7502767,5.60725828 58.0781309,5.82439106 L58.0781309,16.1895435 C58.0781309,18.5982904 59.4224225,19.5655945 61.5377625,19.5655945 C62.1506507,19.5655945 62.7831514,19.486688 63.3762871,19.2496887 C63.4949423,18.6771969 63.5739524,18.005932 63.6332099,17.4137135 C63.1587293,17.5912531 62.5657337,17.7097528 61.9330929,17.7097528 C60.8853692,17.7097528 60.2527285,17.2163073 60.2527285,15.9329575 L60.2527285,11.095877 L63.4949423,11.095877 Z M51.0990498,8.90426291 C50.0513261,8.90426291 48.5291219,9.1215356 47.1453253,9.45716804 L47.1453253,19.3287351 L49.3199228,19.3287351 L49.3199228,10.9181975 C49.9129185,10.8194244 50.5258067,10.7602446 51.0397923,10.7602446 C53.2143899,10.7602446 53.7285155,11.5105558 53.7285155,13.0700785 L53.7285155,19.3287351 L55.902973,19.3287351 L55.902973,12.6949928 C55.902973,10.3061125 54.7365941,8.90426291 51.0990498,8.90426291 Z M30.5977628,11.707962 L29.5301465,11.2538299 C28.1462099,10.6614715 27.3753015,10.069253 27.3753015,9.04248919 C27.3753015,7.99613862 28.1661025,7.32487374 29.8859719,7.32487374 C30.795288,7.32487374 32.0605695,7.50255327 33.1281858,7.89736559 C33.3257109,7.32487374 33.4641186,6.71278873 33.5235162,5.92316409 C32.3966424,5.52835178 31.1907585,5.35053234 29.9057245,5.35053234 C26.7031557,5.35053234 25.1414464,6.79183514 25.1414464,9.04248919 C25.1414464,11.1353302 26.4065879,12.1816808 28.264865,12.991172 L29.2730837,13.4255775 C31.131501,14.2349287 31.8826568,14.7681072 31.8826568,15.9130909 C31.8826568,17.0779412 30.8546856,17.6702995 29.0161609,17.6702995 C27.9287921,17.6702995 26.5054905,17.4137135 25.3983692,16.9004015 C25.1809514,17.5320733 25.0624364,18.0848385 25.0227913,18.8944695 C26.1299126,19.4079214 27.4543116,19.6446409 29.0755586,19.6446409 C32.4361474,19.6446409 34.1560169,18.0848385 34.1560169,15.8143179 C34.1560169,13.8994362 33.1082932,12.7741791 30.5977628,11.707962 Z M15.0861567,9.16070904 C15.0547768,8.44005764 14.8529089,7.72514235 14.4792922,7.07892049 L11.1837046,1.37834548 C10.9323854,0.943520293 10.7588154,0.477776068 10.6622943,0 L10.5247271,0.238258461 C9.70885029,1.64920184 9.70885029,3.38752326 10.524587,4.79846664 L13.1610572,9.35895463 C13.9767939,10.7700379 13.9767939,12.5084992 13.1610572,13.9194426 L13.0233499,14.1577011 C12.9269689,13.679925 12.7532588,13.2141808 12.5019396,12.7794955 L8.54723444,5.93869357 C8.29605532,5.50400828 8.12234528,5.03812415 8.02596423,4.56048799 L7.88825699,4.79874645 C7.07532202,6.20493306 7.07280043,7.93625922 7.88013185,9.3446843 L7.87999176,9.34482421 L10.5247271,13.9194426 C11.3403238,15.330386 11.3403238,17.0688473 10.5247271,18.4799306 L10.3868798,18.7181891 C10.2904987,18.240413 10.1169288,17.7746688 9.86560959,17.3398436 L6.57002193,11.6392686 C6.12804195,10.874687 5.92603398,10.0139905 5.96301741,9.16140856 C2.43516261,10.0818445 0,12.0364593 0,14.2995649 C0,17.4478504 4.71216503,20 10.5247271,20 C16.3371491,20 21.0491741,17.4478504 21.0491741,14.2995649 C21.0491741,12.0363194 18.6142916,10.0812849 15.0861567,9.16070904 Z M42.5979046,17.0779412 C42.0246615,17.5124865 41.3327632,17.7887992 40.4827047,17.7887992 C38.5454175,17.7887992 37.734864,16.367223 37.734864,14.3535683 C37.734864,12.1423675 38.7825877,10.7602446 41.0361953,10.7602446 C41.6489435,10.7602446 42.1433166,10.7996978 42.5979046,10.8786043 L42.5979046,17.0779412 Z M35.5206213,14.3535683 C35.5206213,17.6702995 37.2603834,19.5655945 39.8698164,19.5655945 C41.253613,19.5655945 42.1036715,19.0128293 42.6573022,18.1441583 L42.7758173,19.3287351 L44.7725022,19.3287351 L44.7725022,9.45716804 C43.6258758,9.06221582 42.459637,8.90426291 41.0361953,8.90426291 C37.3788985,8.90426291 35.5206213,10.8786043 35.5206213,14.3535683 Z M71.4227043,17.0779412 C70.8494612,17.5124865 70.1574228,17.7887992 69.3075044,17.7887992 C67.3700771,17.7887992 66.5595236,16.367223 66.5595236,14.3535683 C66.5595236,12.1423675 67.6072473,10.7602446 69.860995,10.7602446 C70.4737432,10.7602446 70.9681164,10.7996978 71.4227043,10.8786043 L71.4227043,17.0779412 Z M64.3455612,14.3535683 C64.3455612,17.6702995 66.0850431,19.5655945 68.6946162,19.5655945 C70.0784128,19.5655945 70.9284712,19.0128293 71.482102,18.1441583 L71.6007571,19.3287351 L73.597442,19.3287351 L73.597442,9.45716804 C72.4508156,9.06221582 71.2844367,8.90426291 69.860995,8.90426291 C66.2036982,8.90426291 64.3455612,10.8786043 64.3455612,14.3535683 Z M99.7137659,13.2873512 C99.8915386,11.6090491 100.702232,10.7206514 102.244189,10.7206514 C103.746641,10.7206514 104.616452,11.6682289 104.616452,13.2873512 L99.7137659,13.2873512 Z M102.362704,8.90426291 C98.9033526,8.90426291 97.5391684,11.2341033 97.5391684,14.1757488 C97.5391684,17.5517999 99.2985429,19.5655945 102.936087,19.5655945 C104.102466,19.5655945 105.15019,19.387915 106.138656,18.9337829 C106.277064,18.2823845 106.395719,17.5320733 106.474729,16.9595814 C105.3875,17.4530268 104.181616,17.7097528 102.995345,17.7097528 C101.058058,17.7097528 100.030086,16.8609483 99.7534111,15.1037397 L106.692147,15.1037397 C106.771297,14.5311079 106.810802,14.0376625 106.810802,13.4255775 C106.810802,10.9379241 105.46651,8.90426291 102.362704,8.90426291 Z M79.9239897,8.90426291 C78.8761259,8.90426291 77.3539216,9.1215356 75.970125,9.45716804 L75.970125,19.3287351 L78.1447225,19.3287351 L78.1447225,10.9181975 C78.7377182,10.8194244 79.3506064,10.7602446 79.864592,10.7602446 C82.0391896,10.7602446 82.5531752,11.5105558 82.5531752,13.0700785 L82.5531752,19.3287351 L84.7277727,19.3287351 L84.7277727,12.6949928 C84.7277727,10.3061125 83.5615339,8.90426291 79.9239897,8.90426291 Z M119.160325,19.330414 L120.544402,19.330414 L120.544402,13.1116303 L126.237608,13.1116303 C126.296445,12.7364047 126.356684,12.1441862 126.376296,11.7888272 L120.544402,11.7888272 L120.544402,6.99133987 L126.771346,6.99133987 C126.849796,6.61625418 126.910034,6.0240357 126.929646,5.66867664 L119.160325,5.66867664 L119.160325,19.330414 Z M93.604636,17.0384879 C93.0116403,17.49262 92.2998494,17.7887992 91.4300384,17.7887992 C89.4926111,17.7887992 88.6821977,16.367223 88.6821977,14.3535683 C88.6821977,12.1027743 89.7101689,10.7602446 91.8648739,10.7602446 C92.4382571,10.7602446 93.0313928,10.839291 93.604636,10.9576507 L93.604636,17.0384879 Z M93.604636,9.06221582 C93.0905103,8.96358269 92.5567722,8.90426291 91.983529,8.90426291 C88.3263723,8.90426291 86.4680952,10.8786043 86.4680952,14.3535683 C86.4680952,17.6702995 88.2077172,19.5655945 90.8171502,19.5655945 C92.2405919,19.5655945 93.0905103,18.9931027 93.6442811,18.0651119 L93.7627962,19.3287351 L95.759481,19.3287351 L95.759481,5.50848525 C95.0476901,5.50848525 94.2767818,5.56766512 93.604636,5.80466444 L93.604636,9.06221582 Z M108.689392,9.45716804 L108.689392,19.3287351 L110.863989,19.3287351 L110.863989,10.8786043 C111.397727,10.7996978 111.931466,10.7602446 112.465204,10.7602446 C113.078092,10.7602446 113.592218,10.7799712 114.106063,10.839291 C114.224718,10.4246121 114.303728,9.63484757 114.303728,8.98330932 C113.829388,8.92398954 113.078092,8.90426291 112.405946,8.90426291 C111.18031,8.90426291 109.61846,9.14126222 108.689392,9.45716804 L108.689392,9.45716804 Z" id="Santander-Financiamentos"></path>
            </g>
        </g>
    </g>
</svg>