<?xml version="1.0" encoding="UTF-8" standalone="no"?>
<svg
   xmlns:dc="http://purl.org/dc/elements/1.1/"
   xmlns:cc="http://creativecommons.org/ns#"
   xmlns:rdf="http://www.w3.org/1999/02/22-rdf-syntax-ns#"
   xmlns:svg="http://www.w3.org/2000/svg"
   xmlns="http://www.w3.org/2000/svg"
   xmlns:xlink="http://www.w3.org/1999/xlink"
   xmlns:sodipodi="http://sodipodi.sourceforge.net/DTD/sodipodi-0.dtd"
   xmlns:inkscape="http://www.inkscape.org/namespaces/inkscape"
   width="13.335176"
   height="13.335057"
   viewBox="0 0 13.335176 13.335057"
   version="1.1"
   id="svg852"
   sodipodi:docname="Header_financiamentos_320-Header_financiamentos_320 search open (1).svg"
   inkscape:version="1.0.1 (3bc2e813f5, 2020-09-07)">
  <metadata
     id="metadata856">
    <rdf:RDF>
      <cc:Work
         rdf:about="">
        <dc:format>image/svg+xml</dc:format>
        <dc:type
           rdf:resource="http://purl.org/dc/dcmitype/StillImage" />
        <dc:title>E3932A03-3B95-4B05-86A6-5EE8F611ADA8</dc:title>
      </cc:Work>
    </rdf:RDF>
  </metadata>
  <sodipodi:namedview
     pagecolor="#ffffff"
     bordercolor="#666666"
     borderopacity="1"
     objecttolerance="10"
     gridtolerance="10"
     guidetolerance="10"
     inkscape:pageopacity="0"
     inkscape:pageshadow="2"
     inkscape:window-width="2560"
     inkscape:window-height="1027"
     id="namedview854"
     showgrid="false"
     fit-margin-top="0"
     fit-margin-left="0"
     fit-margin-right="0"
     fit-margin-bottom="0"
     inkscape:zoom="2.121118"
     inkscape:cx="-69.332414"
     inkscape:cy="6.6675273"
     inkscape:window-x="-8"
     inkscape:window-y="-8"
     inkscape:window-maximized="1"
     inkscape:current-layer="svg852" />
  <title
     id="title833">E3932A03-3B95-4B05-86A6-5EE8F611ADA8</title>
  <defs
     id="defs836">
    <path
       d="m 15.353544,4.1463492 7.499999,7.4995798 0.01187,0.01278 c 0.01165,0.01247 0.02267,0.02553 0.03301,0.03914 l -0.04487,-0.05193 c 0.02684,0.02683 0.04998,0.05596 0.06944,0.08674 0.007,0.01164 0.01372,0.02328 0.01998,0.0352 0.0073,0.0134 0.01374,0.02721 0.01951,0.04123 0.0047,0.01193 0.0093,0.02424 0.01332,0.03676 0.0057,0.01719 0.01016,0.03433 0.01375,0.05162 0.0017,0.0086 0.0034,0.01788 0.0048,0.02729 0.0029,0.01905 0.0046,0.03744 0.0053,0.05586 C 22.999864,11.986395 23,11.993182 23,12 l -4.31e-4,0.0203 c -7.06e-4,0.01708 -0.0023,0.03413 -0.0047,0.05108 L 23,12 c 0,0.0361 -0.0038,0.0713 -0.01109,0.105228 -0.0032,0.01448 -0.0072,0.0296 -0.01192,0.04454 -0.0047,0.01539 -0.01004,0.03004 -0.01607,0.04434 -0.0047,0.0106 -0.0097,0.02139 -0.01508,0.03202 -0.0077,0.01556 -0.01631,0.03054 -0.02567,0.04501 -0.006,0.0089 -0.01206,0.01756 -0.0184,0.0261 -0.01136,0.01579 -0.02393,0.03083 -0.03733,0.04509 -0.0035,0.0032 -0.0072,0.007 -0.01087,0.01071 l -7.5,7.500595 c -0.195254,0.19527 -0.511836,0.195282 -0.707106,2.8e-5 -0.19527,-0.195255 -0.195283,-0.511837 -2.8e-5,-0.707107 L 21.291,12.499913 1.5,12.5 C 1.2238577,12.5 1,12.276142 1,12 1,11.723858 1.2238577,11.5 1.5,11.5 l 19.793,-8.7e-5 -6.646544,-6.6464372 C 14.451189,4.6582191 14.45118,4.3416366 14.646437,4.146369 c 0.195256,-0.1952676 0.511839,-0.1952765 0.707107,-1.98e-5 z"
       id="path-1" />
  </defs>
  <g
     id="MOBILE-LP---Financeira"
     stroke="none"
     stroke-width="1"
     fill="none"
     fill-rule="evenodd"
     transform="translate(-230.33241,-22.332473)">
    <g
       id="Header_financiamentos_320"
       transform="translate(1,1)">
      <rect
         id="Rectangle"
         stroke="#767676"
         fill="#ffffff"
         x="-0.5"
         y="-0.5"
         width="321"
         height="57" />
      <g
         id="Group"
         transform="translate(228,20)"
         fill="#222222"
         fill-rule="nonzero">
        <g
           id="Icons-/-System-/-ic_menu">
          <path
             d="m 1.4314563,1.4300919 c 0.1301814,-0.1301682 0.3412364,-0.1301575 0.4714046,2.38e-5 v 0 L 7.999413,7.5264727 14.096683,1.43027 c 0.111579,-0.1115784 0.282579,-0.1275182 0.411136,-0.047819 l 0.06027,0.047819 c 0.130175,0.1301747 0.130175,0.3412297 0,0.4714045 v 0 l -6.097675,6.0967982 6.099555,6.1000313 c 0.111573,0.111584 0.127504,0.282585 0.0478,0.411137 l -0.04782,0.06027 c -0.130181,0.130168 -0.341236,0.130158 -0.471405,-2.4e-5 v 0 L 7.999413,8.4694727 1.9014486,14.568314 c -0.1115784,0.111578 -0.282579,0.127518 -0.4111351,0.04782 l -0.060269,-0.04782 c -0.1301747,-0.130175 -0.1301747,-0.34123 0,-0.471404 v 0 L 7.527413,7.9984727 1.4314325,1.9014964 C 1.3198598,1.7899124 1.3039287,1.618911 1.383634,1.4903589 Z"
             id="Icon" />
        </g>
      </g>
      <g
         id="Icons-/-Functional-/-ic_security"
         transform="translate(280,16)">
        <mask
           id="mask-2"
           fill="#ffffff">
          <use
             xlink:href="#path-1"
             id="use842"
             x="0"
             y="0"
             width="100%"
             height="100%" />
        </mask>
        <use
           id="ic_arrow_run_right"
           fill="#cc0000"
           fill-rule="nonzero"
           xlink:href="#path-1"
           x="0"
           y="0"
           width="100%"
           height="100%" />
      </g>
      <text
         id="O-que-você-procura?"
         font-family="OpenSans-Regular, 'Open Sans'"
         font-size="16px"
         font-weight="normal"
         fill="#222222"><tspan
           x="16"
           y="35"
           id="tspan847">O que você procura?</tspan></text>
    </g>
  </g>
</svg>
